<mxfile host="app.diagrams.net" modified="2021-07-22T10:14:30.011Z" agent="5.0 (Windows NT 10.0; Win64; x64) AppleWebKit/537.36 (KHTML, like Gecko) Chrome/91.0.4472.164 Safari/537.36" etag="v90Qx4TDvim4ACmgdzct" version="14.8.6" type="github">
  <diagram name="Page-1" id="0783ab3e-0a74-02c8-0abd-f7b4e66b4bec">
    <mxGraphModel dx="1422" dy="826" grid="1" gridSize="10" guides="1" tooltips="1" connect="1" arrows="1" fold="1" page="1" pageScale="1" pageWidth="850" pageHeight="1100" background="none" math="0" shadow="0">
      <root>
        <mxCell id="0" />
        <mxCell id="1" parent="0" />
        <mxCell id="1c1d494c118603dd-1" value="信息流H5商业化闭环" style="swimlane;html=1;childLayout=stackLayout;startSize=20;rounded=0;shadow=0;comic=0;labelBackgroundColor=none;strokeWidth=1;fontFamily=Verdana;fontSize=12;align=center;" parent="1" vertex="1">
          <mxGeometry x="40" y="20" width="750" height="1230" as="geometry" />
        </mxCell>
        <mxCell id="1c1d494c118603dd-2" value="feeds-biz-js" style="swimlane;html=1;startSize=20;" parent="1c1d494c118603dd-1" vertex="1">
          <mxGeometry y="20" width="250" height="1210" as="geometry" />
        </mxCell>
        <mxCell id="60571a20871a0731-8" value="http请求广告" style="rounded=1;whiteSpace=wrap;html=1;shadow=0;comic=0;labelBackgroundColor=none;strokeWidth=1;fontFamily=Verdana;fontSize=12;align=center;arcSize=50;" parent="1c1d494c118603dd-2" vertex="1">
          <mxGeometry x="60" y="100" width="100" height="30" as="geometry" />
        </mxCell>
        <mxCell id="60571a20871a0731-4" value="" style="ellipse;whiteSpace=wrap;html=1;rounded=0;shadow=0;comic=0;labelBackgroundColor=none;strokeWidth=1;fillColor=#000000;fontFamily=Verdana;fontSize=12;align=center;" parent="1c1d494c118603dd-2" vertex="1">
          <mxGeometry x="90" y="30" width="40" height="40" as="geometry" />
        </mxCell>
        <mxCell id="1c1d494c118603dd-27" style="edgeStyle=orthogonalEdgeStyle;rounded=0;html=1;labelBackgroundColor=none;startArrow=none;startFill=0;startSize=5;endArrow=classicThin;endFill=1;endSize=5;jettySize=auto;orthogonalLoop=1;strokeWidth=1;fontFamily=Verdana;fontSize=12" parent="1c1d494c118603dd-2" source="60571a20871a0731-4" target="60571a20871a0731-8" edge="1">
          <mxGeometry relative="1" as="geometry" />
        </mxCell>
        <mxCell id="202yr0auAqGQ7w-_hxYl-19" style="edgeStyle=orthogonalEdgeStyle;rounded=0;orthogonalLoop=1;jettySize=auto;html=1;entryX=0.5;entryY=0;entryDx=0;entryDy=0;" edge="1" parent="1c1d494c118603dd-2" source="202yr0auAqGQ7w-_hxYl-13" target="202yr0auAqGQ7w-_hxYl-16">
          <mxGeometry relative="1" as="geometry" />
        </mxCell>
        <mxCell id="202yr0auAqGQ7w-_hxYl-13" value="接收响应体" style="rounded=1;whiteSpace=wrap;html=1;shadow=0;comic=0;labelBackgroundColor=none;strokeWidth=1;fontFamily=Verdana;fontSize=12;align=center;arcSize=50;" vertex="1" parent="1c1d494c118603dd-2">
          <mxGeometry x="75" y="430" width="100" height="30" as="geometry" />
        </mxCell>
        <mxCell id="202yr0auAqGQ7w-_hxYl-22" style="edgeStyle=orthogonalEdgeStyle;rounded=0;orthogonalLoop=1;jettySize=auto;html=1;" edge="1" parent="1c1d494c118603dd-2" source="202yr0auAqGQ7w-_hxYl-16" target="202yr0auAqGQ7w-_hxYl-21">
          <mxGeometry relative="1" as="geometry" />
        </mxCell>
        <mxCell id="202yr0auAqGQ7w-_hxYl-16" value="读取透传" style="rounded=0;whiteSpace=wrap;html=1;shadow=0;comic=0;labelBackgroundColor=none;strokeWidth=1;fontFamily=Verdana;fontSize=12;align=center;arcSize=50;" vertex="1" parent="1c1d494c118603dd-2">
          <mxGeometry x="150" y="510" width="70" height="30" as="geometry" />
        </mxCell>
        <mxCell id="202yr0auAqGQ7w-_hxYl-17" value="h5Transparent != null &amp;amp;&amp;amp; statUploadStrategy &amp;gt;=2&lt;br&gt;" style="shape=note;whiteSpace=wrap;html=1;rounded=0;shadow=0;comic=0;labelBackgroundColor=none;strokeWidth=1;fontFamily=Verdana;fontSize=12;align=left;size=20;" vertex="1" parent="1c1d494c118603dd-2">
          <mxGeometry x="10" y="477.5" width="100" height="122.5" as="geometry" />
        </mxCell>
        <mxCell id="202yr0auAqGQ7w-_hxYl-18" style="edgeStyle=none;rounded=0;html=1;dashed=1;labelBackgroundColor=none;startArrow=none;startFill=0;startSize=5;endArrow=oval;endFill=0;endSize=5;jettySize=auto;orthogonalLoop=1;strokeWidth=1;fontFamily=Verdana;fontSize=12;entryX=0;entryY=0.5;entryDx=0;entryDy=0;" edge="1" parent="1c1d494c118603dd-2" target="202yr0auAqGQ7w-_hxYl-16">
          <mxGeometry relative="1" as="geometry">
            <mxPoint x="110" y="560" as="sourcePoint" />
            <mxPoint x="80" y="677.5" as="targetPoint" />
          </mxGeometry>
        </mxCell>
        <mxCell id="202yr0auAqGQ7w-_hxYl-25" style="edgeStyle=orthogonalEdgeStyle;rounded=0;orthogonalLoop=1;jettySize=auto;html=1;entryX=0.5;entryY=0;entryDx=0;entryDy=0;" edge="1" parent="1c1d494c118603dd-2" source="202yr0auAqGQ7w-_hxYl-21" target="202yr0auAqGQ7w-_hxYl-23">
          <mxGeometry relative="1" as="geometry" />
        </mxCell>
        <mxCell id="202yr0auAqGQ7w-_hxYl-21" value="曝光点击" style="rounded=1;whiteSpace=wrap;html=1;shadow=0;comic=0;labelBackgroundColor=none;strokeWidth=1;fontFamily=Verdana;fontSize=12;align=center;arcSize=50;" vertex="1" parent="1c1d494c118603dd-2">
          <mxGeometry x="80" y="670" width="100" height="30" as="geometry" />
        </mxCell>
        <mxCell id="202yr0auAqGQ7w-_hxYl-34" style="edgeStyle=orthogonalEdgeStyle;rounded=0;orthogonalLoop=1;jettySize=auto;html=1;" edge="1" parent="1c1d494c118603dd-2" source="202yr0auAqGQ7w-_hxYl-23" target="202yr0auAqGQ7w-_hxYl-33">
          <mxGeometry relative="1" as="geometry" />
        </mxCell>
        <mxCell id="202yr0auAqGQ7w-_hxYl-23" value="传递统一透传" style="rounded=0;whiteSpace=wrap;html=1;shadow=0;comic=0;labelBackgroundColor=none;strokeWidth=1;fontFamily=Verdana;fontSize=12;align=center;arcSize=50;" vertex="1" parent="1c1d494c118603dd-2">
          <mxGeometry x="82.5" y="760" width="95" height="30" as="geometry" />
        </mxCell>
        <mxCell id="202yr0auAqGQ7w-_hxYl-33" value="" style="ellipse;html=1;shape=endState;fillColor=#000000;strokeColor=#ff0000;" vertex="1" parent="1c1d494c118603dd-2">
          <mxGeometry x="106" y="1090" width="47" height="50" as="geometry" />
        </mxCell>
        <mxCell id="1c1d494c118603dd-3" value="JS-Stat-SDK" style="swimlane;html=1;startSize=20;" parent="1c1d494c118603dd-1" vertex="1">
          <mxGeometry x="250" y="20" width="250" height="1210" as="geometry" />
        </mxCell>
        <mxCell id="202yr0auAqGQ7w-_hxYl-26" value="双通道上报" style="rounded=0;whiteSpace=wrap;html=1;shadow=0;comic=0;labelBackgroundColor=none;strokeWidth=1;fontFamily=Verdana;fontSize=12;align=center;arcSize=50;" vertex="1" parent="1c1d494c118603dd-3">
          <mxGeometry x="90" y="710" width="70" height="30" as="geometry" />
        </mxCell>
        <mxCell id="202yr0auAqGQ7w-_hxYl-35" value="生成点击ID,双通道上报点击" style="rounded=0;whiteSpace=wrap;html=1;shadow=0;comic=0;labelBackgroundColor=none;strokeWidth=1;fontFamily=Verdana;fontSize=12;align=center;arcSize=50;" vertex="1" parent="1c1d494c118603dd-3">
          <mxGeometry x="40" y="820" width="170" height="30" as="geometry" />
        </mxCell>
        <mxCell id="1c1d494c118603dd-4" value="Serving" style="swimlane;html=1;startSize=20;" parent="1c1d494c118603dd-1" vertex="1">
          <mxGeometry x="500" y="20" width="250" height="1210" as="geometry" />
        </mxCell>
        <mxCell id="202yr0auAqGQ7w-_hxYl-9" style="edgeStyle=none;rounded=0;orthogonalLoop=1;jettySize=auto;html=1;entryX=0.5;entryY=0;entryDx=0;entryDy=0;" edge="1" parent="1c1d494c118603dd-4" source="202yr0auAqGQ7w-_hxYl-2" target="202yr0auAqGQ7w-_hxYl-7">
          <mxGeometry relative="1" as="geometry" />
        </mxCell>
        <mxCell id="202yr0auAqGQ7w-_hxYl-2" value="获取实验信息" style="rounded=0;whiteSpace=wrap;html=1;shadow=0;comic=0;labelBackgroundColor=none;strokeWidth=1;fontFamily=Verdana;fontSize=12;align=center;arcSize=50;" vertex="1" parent="1c1d494c118603dd-4">
          <mxGeometry x="130" y="180" width="70" height="30" as="geometry" />
        </mxCell>
        <mxCell id="202yr0auAqGQ7w-_hxYl-5" value="SDK满足+命中实验" style="shape=note;whiteSpace=wrap;html=1;rounded=0;shadow=0;comic=0;labelBackgroundColor=none;strokeWidth=1;fontFamily=Verdana;fontSize=12;align=center;size=20;" vertex="1" parent="1c1d494c118603dd-4">
          <mxGeometry x="10" y="155" width="90" height="55" as="geometry" />
        </mxCell>
        <mxCell id="202yr0auAqGQ7w-_hxYl-6" style="edgeStyle=none;rounded=0;html=1;dashed=1;labelBackgroundColor=none;startArrow=none;startFill=0;startSize=5;endArrow=oval;endFill=0;endSize=5;jettySize=auto;orthogonalLoop=1;strokeWidth=1;fontFamily=Verdana;fontSize=12;entryX=0;entryY=0.5;entryDx=0;entryDy=0;exitX=0;exitY=0;exitDx=90;exitDy=37.5;exitPerimeter=0;" edge="1" parent="1c1d494c118603dd-4" source="202yr0auAqGQ7w-_hxYl-5" target="202yr0auAqGQ7w-_hxYl-2">
          <mxGeometry relative="1" as="geometry">
            <mxPoint x="130" y="300" as="sourcePoint" />
            <mxPoint x="380" y="240" as="targetPoint" />
          </mxGeometry>
        </mxCell>
        <mxCell id="202yr0auAqGQ7w-_hxYl-7" value="组装统一透传" style="rounded=1;whiteSpace=wrap;html=1;shadow=0;comic=0;labelBackgroundColor=none;strokeWidth=1;fontFamily=Verdana;fontSize=12;align=center;arcSize=50;" vertex="1" parent="1c1d494c118603dd-4">
          <mxGeometry x="130" y="360" width="100" height="30" as="geometry" />
        </mxCell>
        <mxCell id="202yr0auAqGQ7w-_hxYl-11" value="1.定义h5Transparent统一存放返回&lt;br&gt;2. 原业务逗号分隔透传,需要增加#statUploadStrategy#上报" style="shape=note;whiteSpace=wrap;html=1;rounded=0;shadow=0;comic=0;labelBackgroundColor=none;strokeWidth=1;fontFamily=Verdana;fontSize=12;align=left;size=20;" vertex="1" parent="1c1d494c118603dd-4">
          <mxGeometry x="10" y="245" width="150" height="95" as="geometry" />
        </mxCell>
        <mxCell id="202yr0auAqGQ7w-_hxYl-12" style="edgeStyle=none;rounded=0;html=1;dashed=1;labelBackgroundColor=none;startArrow=none;startFill=0;startSize=5;endArrow=oval;endFill=0;endSize=5;jettySize=auto;orthogonalLoop=1;strokeWidth=1;fontFamily=Verdana;fontSize=12;entryX=0;entryY=0.75;entryDx=0;entryDy=0;exitX=0.569;exitY=1;exitDx=0;exitDy=0;exitPerimeter=0;" edge="1" parent="1c1d494c118603dd-4" source="202yr0auAqGQ7w-_hxYl-11" target="202yr0auAqGQ7w-_hxYl-7">
          <mxGeometry relative="1" as="geometry">
            <mxPoint x="110" y="202.5" as="sourcePoint" />
            <mxPoint x="140" y="205" as="targetPoint" />
          </mxGeometry>
        </mxCell>
        <mxCell id="202yr0auAqGQ7w-_hxYl-24" value="伏羲接收曝光埋点" style="rounded=1;whiteSpace=wrap;html=1;shadow=0;comic=0;labelBackgroundColor=none;strokeWidth=1;fontFamily=Verdana;fontSize=12;align=center;arcSize=50;" vertex="1" parent="1c1d494c118603dd-4">
          <mxGeometry x="75" y="670" width="100" height="30" as="geometry" />
        </mxCell>
        <mxCell id="202yr0auAqGQ7w-_hxYl-30" value="统一网关点击" style="rounded=1;whiteSpace=wrap;html=1;shadow=0;comic=0;labelBackgroundColor=none;strokeWidth=1;fontFamily=Verdana;fontSize=12;align=center;arcSize=50;" vertex="1" parent="1c1d494c118603dd-4">
          <mxGeometry x="75" y="850" width="100" height="30" as="geometry" />
        </mxCell>
        <mxCell id="202yr0auAqGQ7w-_hxYl-36" value="业务网关点击" style="rounded=1;whiteSpace=wrap;html=1;shadow=0;comic=0;labelBackgroundColor=none;strokeWidth=1;fontFamily=Verdana;fontSize=12;align=center;arcSize=50;" vertex="1" parent="1c1d494c118603dd-4">
          <mxGeometry x="75" y="770" width="100" height="30" as="geometry" />
        </mxCell>
        <mxCell id="202yr0auAqGQ7w-_hxYl-15" style="edgeStyle=orthogonalEdgeStyle;rounded=0;orthogonalLoop=1;jettySize=auto;html=1;entryX=1;entryY=0.5;entryDx=0;entryDy=0;exitX=0.5;exitY=1;exitDx=0;exitDy=0;" edge="1" parent="1c1d494c118603dd-1" source="202yr0auAqGQ7w-_hxYl-7" target="202yr0auAqGQ7w-_hxYl-13">
          <mxGeometry relative="1" as="geometry" />
        </mxCell>
        <mxCell id="202yr0auAqGQ7w-_hxYl-27" style="edgeStyle=orthogonalEdgeStyle;rounded=0;orthogonalLoop=1;jettySize=auto;html=1;entryX=0;entryY=0.5;entryDx=0;entryDy=0;" edge="1" parent="1c1d494c118603dd-1" source="202yr0auAqGQ7w-_hxYl-23" target="202yr0auAqGQ7w-_hxYl-26">
          <mxGeometry relative="1" as="geometry" />
        </mxCell>
        <mxCell id="202yr0auAqGQ7w-_hxYl-28" style="edgeStyle=orthogonalEdgeStyle;rounded=0;orthogonalLoop=1;jettySize=auto;html=1;entryX=0;entryY=0.5;entryDx=0;entryDy=0;" edge="1" parent="1c1d494c118603dd-1" source="202yr0auAqGQ7w-_hxYl-26" target="202yr0auAqGQ7w-_hxYl-24">
          <mxGeometry relative="1" as="geometry" />
        </mxCell>
        <mxCell id="202yr0auAqGQ7w-_hxYl-31" value="增加传递h5Transparent" style="edgeStyle=orthogonalEdgeStyle;rounded=0;orthogonalLoop=1;jettySize=auto;html=1;entryX=0.5;entryY=1;entryDx=0;entryDy=0;" edge="1" parent="1c1d494c118603dd-1" source="202yr0auAqGQ7w-_hxYl-23" target="202yr0auAqGQ7w-_hxYl-35">
          <mxGeometry relative="1" as="geometry">
            <Array as="points">
              <mxPoint x="130" y="885" />
              <mxPoint x="375" y="885" />
            </Array>
          </mxGeometry>
        </mxCell>
        <mxCell id="202yr0auAqGQ7w-_hxYl-37" style="edgeStyle=orthogonalEdgeStyle;rounded=0;orthogonalLoop=1;jettySize=auto;html=1;entryX=0;entryY=0.5;entryDx=0;entryDy=0;" edge="1" parent="1c1d494c118603dd-1" source="202yr0auAqGQ7w-_hxYl-35" target="202yr0auAqGQ7w-_hxYl-36">
          <mxGeometry relative="1" as="geometry" />
        </mxCell>
        <mxCell id="202yr0auAqGQ7w-_hxYl-38" style="edgeStyle=orthogonalEdgeStyle;rounded=0;orthogonalLoop=1;jettySize=auto;html=1;entryX=0;entryY=0.5;entryDx=0;entryDy=0;" edge="1" parent="1c1d494c118603dd-1" source="202yr0auAqGQ7w-_hxYl-35" target="202yr0auAqGQ7w-_hxYl-30">
          <mxGeometry relative="1" as="geometry" />
        </mxCell>
        <mxCell id="202yr0auAqGQ7w-_hxYl-3" style="rounded=0;orthogonalLoop=1;jettySize=auto;html=1;" edge="1" parent="1" source="202yr0auAqGQ7w-_hxYl-1" target="202yr0auAqGQ7w-_hxYl-2">
          <mxGeometry relative="1" as="geometry" />
        </mxCell>
        <mxCell id="202yr0auAqGQ7w-_hxYl-1" value="获取统计SDK+请求方式" style="rounded=1;whiteSpace=wrap;html=1;shadow=0;comic=0;labelBackgroundColor=none;strokeWidth=1;fontFamily=Verdana;fontSize=12;align=center;arcSize=50;" vertex="1" parent="1">
          <mxGeometry x="620" y="140" width="100" height="30" as="geometry" />
        </mxCell>
        <mxCell id="1c1d494c118603dd-28" style="edgeStyle=orthogonalEdgeStyle;rounded=0;html=1;labelBackgroundColor=none;startArrow=none;startFill=0;startSize=5;endArrow=classicThin;endFill=1;endSize=5;jettySize=auto;orthogonalLoop=1;strokeWidth=1;fontFamily=Verdana;fontSize=12;exitX=1;exitY=0.25;exitDx=0;exitDy=0;entryX=0;entryY=0.5;entryDx=0;entryDy=0;" parent="1" source="60571a20871a0731-8" target="202yr0auAqGQ7w-_hxYl-1" edge="1">
          <mxGeometry relative="1" as="geometry">
            <Array as="points">
              <mxPoint x="200" y="155" />
            </Array>
            <mxPoint x="610" y="155" as="targetPoint" />
          </mxGeometry>
        </mxCell>
      </root>
    </mxGraphModel>
  </diagram>
</mxfile>
